<svg aria-hidden="true" style="position: absolute; width: 0; height: 0; overflow: hidden;" version="1.1" xmlns="http://www.w3.org/2000/svg" xmlns:xlink="http://www.w3.org/1999/xlink">
<defs>
<symbol id="icon-magnifying-glass" viewBox="0 0 32 32">
<path fill="#72747c" style="fill: var(--color1, #72747c)" d="M31.715 29.795l-7.776-7.629c2.078-2.32 3.349-5.401 3.35-8.778v-0c0-7.387-6.124-13.388-13.647-13.388-7.527 0-13.642 6.008-13.642 13.388 0 7.379 6.124 13.386 13.644 13.386 3.419 0 6.55-1.24 8.948-3.284l7.776 7.629c0.185 0.18 0.433 0.278 0.674 0.278 0.002 0 0.003 0 0.005 0 0.261 0 0.498-0.106 0.669-0.278l0-0c0.171-0.168 0.278-0.403 0.278-0.662s-0.106-0.493-0.277-0.662l-0-0zM1.908 13.389c0-6.349 5.265-11.508 11.729-11.508 6.471 0 11.729 5.165 11.729 11.508 0 6.341-5.258 11.513-11.729 11.513-6.464 0-11.729-5.165-11.729-11.513z"></path>
</symbol>
<symbol id="icon-Union" viewBox="0 0 69 32">
<path fill="#72747c" style="fill: var(--color1, #72747c)" d="M55.566 14.785h0.353v0.235h-4.89v-0.212h0.353c0.235 0 0.439-0.086 0.611-0.259 0.188-0.188 0.266-0.408 0.235-0.658l-1.223-9.686-4.443 8.746c-0.439 0.956-0.713 1.755-0.823 2.398h-0.235l-5.666-10.932-1.058 9.475c-0.031 0.235 0.039 0.447 0.212 0.635 0.188 0.188 0.407 0.282 0.658 0.282h0.329v0.212h-4.349v-0.235h0.353c0.564 0 1.003-0.204 1.317-0.611 0.157-0.204 0.251-0.447 0.282-0.729l1.834-12.86h0.235l6.207 11.943 5.995-11.943h0.212l1.904 12.907c0.063 0.392 0.243 0.705 0.541 0.94s0.65 0.353 1.058 0.353zM57.704 14.785c0.377 0 0.69-0.118 0.94-0.353 0.266-0.251 0.407-0.549 0.423-0.893v-11.167c0-0.345-0.133-0.635-0.4-0.87s-0.588-0.353-0.963-0.353h-0.329v-0.235h6.865c0.643 0 1.206-0.047 1.692-0.141s0.799-0.172 0.94-0.235v2.68l-0.259-0.023v-0.353c0-0.329-0.11-0.611-0.329-0.846s-0.502-0.353-0.846-0.353h-4.889v5.972h4.020c0.313 0 0.549-0.094 0.705-0.282 0.172-0.188 0.258-0.423 0.258-0.705v-0.306h0.259v3.291h-0.259v-0.306c0-0.439-0.165-0.737-0.493-0.893-0.116-0.045-0.252-0.078-0.392-0.093l-0.007-0.001h-4.091v5.972h3.691c0.721 0 1.324-0.125 1.81-0.376 0.502-0.251 0.878-0.549 1.129-0.893 0.266-0.345 0.533-0.799 0.799-1.364h0.235l-1.293 3.362h-9.544v-0.235h0.329zM26.785 14.766c1.382-0.672 6.17-3.411 8.466-10.024 2.413-7.431-8.847 0.749-8.847 0.749s-10.456-10.542-10.054-0.633c0.746 5.88 7.725 9.131 9.595 9.901v10.289c-0.317-0.757-0.794-1.362-1.43-1.816-0.635-0.455-1.392-0.682-2.269-0.682-1.226 0-2.27 0.439-3.133 1.317-0.862 0.863-1.294 1.907-1.294 3.133 0 1.211 0.431 2.255 1.293 3.133 0.863 0.862 1.907 1.294 3.133 1.294 0.862 0 1.626-0.235 2.292-0.704 0.652-0.475 1.159-1.113 1.465-1.855l0.010-0.029-0.069 1.021v1.362h0.84v-16.455zM28.428 9.119c0 1.236-1.002 2.239-2.239 2.239s-2.239-1.002-2.239-2.239v0c0-1.236 1.002-2.239 2.239-2.239s2.239 1.002 2.239 2.239v0zM11.402 14.433c-0.266 0.235-0.58 0.353-0.94 0.353h-0.282v0.235h4.796v-0.235h-0.282c-0.361 0-0.713-0.157-1.058-0.47-0.188-0.172-0.29-0.431-0.306-0.776v-11.167c0.016-0.345 0.157-0.635 0.423-0.87s0.58-0.353 0.94-0.353h0.282v-0.235h-4.796v0.235h0.282c0.376 0 0.729 0.157 1.058 0.47 0.204 0.188 0.306 0.455 0.306 0.799v5.29h-8.675v-5.313c0.016-0.345 0.157-0.635 0.423-0.87 0.239-0.233 0.566-0.376 0.926-0.376 0.005 0 0.010 0 0.015 0h0.281v-0.235h-4.796v0.235h0.282c0.36 0 0.674 0.125 0.94 0.376s0.407 0.549 0.423 0.893v11.097c-0.016 0.345-0.157 0.643-0.423 0.893-0.251 0.251-0.564 0.376-0.94 0.376h-0.282v0.235h4.796v-0.235h-0.282c-0.361 0-0.674-0.118-0.94-0.353-0.266-0.251-0.408-0.549-0.423-0.893v-5.125h8.675v5.125c-0.016 0.345-0.157 0.643-0.423 0.893zM19.658 29.61c-0.666-0.711-0.999-1.589-0.999-2.633 0-1.059 0.333-1.937 0.999-2.633 0.681-0.696 1.544-1.044 2.588-1.044 1.059 0 1.922 0.348 2.587 1.045 0.681 0.695 1.021 1.574 1.021 2.633 0 1.045-0.34 1.922-1.021 2.633-0.666 0.712-1.528 1.067-2.587 1.067-1.045 0-1.907-0.355-2.588-1.067zM30.651 28.453l7.264-2.815c-0.303-0.923-0.795-1.665-1.476-2.225-0.666-0.56-1.482-0.84-2.452-0.84-1.226 0-2.269 0.439-3.132 1.317-0.863 0.863-1.294 1.907-1.294 3.133 0 1.211 0.431 2.255 1.293 3.133 0.863 0.862 1.892 1.293 3.088 1.293s2.217-0.408 3.064-1.225l-0.568-0.454c-0.666 0.62-1.437 0.931-2.315 0.931s-1.612-0.204-2.202-0.613c-0.575-0.408-0.999-0.953-1.271-1.634zM30.447 27.703c-0.030-0.303-0.046-0.537-0.046-0.704 0-1.059 0.333-1.937 0.999-2.633 0.681-0.696 1.544-1.044 2.587-1.044 1.347 0 2.331 0.62 2.951 1.861l-6.491 2.52zM39.885 26.977c0 1.211 0.431 2.255 1.294 3.133 0.863 0.862 1.884 1.294 3.065 1.294s2.186-0.378 3.019-1.135l-0.455-0.567c-0.681 0.636-1.528 0.953-2.542 0.953s-1.861-0.348-2.542-1.044c-0.666-0.696-0.999-1.574-0.999-2.633s0.333-1.937 0.999-2.633c0.681-0.696 1.528-1.044 2.542-1.044s1.861 0.318 2.542 0.953l0.455-0.567c-0.833-0.756-1.839-1.135-3.019-1.135s-2.202 0.439-3.065 1.317c-0.862 0.863-1.294 1.9-1.294 3.11zM57.202 30.132c0.862-0.878 1.294-1.93 1.294-3.156s-0.431-2.269-1.294-3.132c-0.862-0.863-1.914-1.294-3.156-1.294-1.225 0-2.269 0.439-3.132 1.317-0.863 0.863-1.294 1.907-1.294 3.133 0 1.211 0.431 2.255 1.293 3.133 0.863 0.862 1.907 1.294 3.133 1.294 1.241 0 2.293-0.431 3.156-1.294zM51.459 29.61c-0.666-0.711-0.999-1.589-0.999-2.633 0-1.059 0.333-1.937 0.999-2.633 0.681-0.696 1.544-1.044 2.587-1.044 1.060 0 1.922 0.348 2.588 1.045 0.681 0.695 1.021 1.574 1.021 2.633 0 1.045-0.34 1.922-1.021 2.633-0.666 0.712-1.528 1.067-2.588 1.067-1.044 0-1.907-0.355-2.587-1.067zM62.55 22.732h-0.749v8.49h0.84v-4.744c0.121-0.908 0.507-1.657 1.157-2.247s1.445-0.901 2.384-0.931l0.023-0.75c-0.817 0.031-1.536 0.265-2.156 0.704s-1.090 1.021-1.407 1.748l-0.091-2.269z"></path>
</symbol>
<symbol id="icon-send-email" viewBox="0 0 40 32">
<path fill="#72747c" style="fill: var(--color1, #72747c)" d="M31.996 24.714c-0.173-0.001-0.328-0.076-0.436-0.195l-0-0.001-7.332-7.838c-0.124-0.14-0.2-0.326-0.2-0.529 0-0.188 0.065-0.361 0.174-0.497l-0.001 0.002c0.107-0.141 0.274-0.231 0.463-0.231 0.174 0 0.33 0.077 0.436 0.198l0.001 0.001 7.332 7.834c0.125 0.14 0.201 0.326 0.201 0.53 0 0.188-0.065 0.361-0.174 0.498l0.001-0.002c-0.109 0.138-0.276 0.226-0.464 0.228h-0zM7.52 24.716c-0.188-0.003-0.354-0.092-0.463-0.229l-0.001-0.001c-0.107-0.135-0.172-0.307-0.172-0.495 0-0.203 0.076-0.389 0.201-0.53l-0.001 0.001 7.334-7.836c0.107-0.121 0.263-0.196 0.437-0.196 0.188 0 0.355 0.089 0.462 0.227l0.001 0.001c0.108 0.135 0.174 0.309 0.174 0.498 0 0.203-0.076 0.388-0.201 0.529l0.001-0.001-7.336 7.834c-0.108 0.12-0.263 0.196-0.436 0.198h-0z"></path>
<path fill="#72747c" style="fill: var(--color1, #72747c)" d="M36.332 32h-33.146c-1.756 0-3.186-1.626-3.186-3.628v-24.744c0-2 1.43-3.628 3.186-3.628h33.146c1.756 0 3.186 1.628 3.186 3.628v24.744c0 2-1.43 3.628-3.186 3.628zM3.186 1.452c-1.054 0-1.912 0.976-1.912 2.176v24.744c0 1.2 0.858 2.176 1.912 2.176h33.146c1.054 0 1.912-0.976 1.912-2.176v-24.744c0-1.2-0.858-2.176-1.912-2.176h-33.146z"></path>
<path fill="#72747c" style="fill: var(--color1, #72747c)" d="M19.76 19.646c-0.848 0-1.696-0.32-2.34-0.96l-16.362-16.258c-0.135-0.143-0.218-0.336-0.218-0.549 0-0.179 0.059-0.344 0.158-0.477l-0.002 0.002c0.108-0.15 0.282-0.247 0.479-0.247 0.165 0 0.314 0.068 0.421 0.177l0 0 16.36 16.256c0.388 0.376 0.918 0.607 1.502 0.607s1.114-0.231 1.503-0.608l-0.001 0.001 16.34-16.23c0.266-0.262 0.666-0.234 0.9 0.070 0.098 0.131 0.157 0.297 0.157 0.476 0 0.212-0.083 0.405-0.217 0.548l0-0-16.34 16.23c-0.648 0.642-1.494 0.962-2.34 0.962z"></path>
</symbol>
<symbol id="icon-our-ach2" viewBox="0 0 26 32">
<path fill="#72747c" style="fill: var(--color1, #72747c)" opacity="0.85" d="M23.173 3.491h-0.283v-0.483c0-1.017-0.827-1.844-1.796-1.844h-0.003l-16.918-1.164c-1.019 0-1.845 0.828-1.845 1.845v1.646h-0.283c-1.129 0.002-2.043 0.916-2.045 2.045v2.609c0.002 1.129 0.916 2.043 2.045 2.045h0.064l1.98 19.965c0 1.018 0.827 1.845 1.845 1.845h13.381c0.255 0 0.497-0.052 0.718-0.145 0.661-0.277 1.126-0.921 1.124-1.633l1.984-20.032h0.032c1.129-0.002 2.043-0.916 2.045-2.045v-2.609c-0.002-1.129-0.916-2.043-2.045-2.045h-0zM3.69 1.845c0-0.267 0.217-0.482 0.436-0.483l16.919 1.165c0.267 0 0.482 0.215 0.482 0.482v0.482h-17.837v-1.646zM21.215 15.611l-3.659 0.653c-1.188-1.391-2.944-2.267-4.904-2.267-0.007 0-0.015 0-0.022 0h0.001c-1.915 0-3.686 0.821-4.925 2.268l-3.674-0.655-0.553-5.419h18.288l-0.554 5.419zM21.095 17.017l-0.529 5.355-3.579-0.659-0.254 0.337c-0.939 1.253-2.42 2.055-4.089 2.055-0.004 0-0.009 0-0.013-0h0.001c-0.004 0-0.008 0-0.013 0-1.669 0-3.15-0.802-4.080-2.042l-0.009-0.013-0.254-0.337-3.591 0.659-0.531-5.355 4.124 0.734 0.253-0.335c0.939-1.253 2.42-2.055 4.089-2.055 0.005 0 0.009 0 0.014 0h-0.001c1.623 0 3.119 0.75 4.101 2.055l0.252 0.335 4.11-0.734zM19.314 30.638h-13.38c-0.067-0-0.131-0.015-0.188-0.042l0.003 0.001c-0.172-0.078-0.297-0.263-0.299-0.51l-0.011-0.089-0.61-6.269 2.88-0.528c1.188 1.389 2.943 2.265 4.902 2.265 0.008 0 0.015 0 0.023-0h-0.001c1.913 0 3.684-0.82 4.923-2.265l2.867 0.528-0.624 6.425c-0.004 0.265-0.218 0.478-0.482 0.482h-0zM23.855 8.145c0 0.377-0.306 0.683-0.683 0.683v0h-21.126c-0.377 0-0.683-0.306-0.683-0.683v0-2.609c0-0.377 0.306-0.683 0.683-0.683v0h21.129c0.377 0.001 0.682 0.306 0.682 0.683v0 2.609z"></path>
<path fill="#72747c" style="fill: var(--color1, #72747c)" opacity="0.85" d="M12.608 16.357c-2.066 0-3.748 1.529-3.748 3.408s1.682 3.408 3.749 3.408c2.067 0 3.748-1.529 3.748-3.408s-1.682-3.408-3.748-3.408zM12.608 21.81c-1.314 0-2.385-0.917-2.385-2.045s1.071-2.045 2.386-2.045 2.385 0.917 2.385 2.045-1.071 2.045-2.385 2.045z"></path>
</symbol>
<symbol id="icon-our-ach4" viewBox="0 0 32 32">
<path fill="#72747c" style="fill: var(--color1, #72747c)" d="M28.651 24.419c0.471-0.551 0.757-1.267 0.757-2.048v-0.338c-0.002-1.743-1.415-3.155-3.157-3.157h-0c-1.743 0.002-3.156 1.414-3.158 3.157v0.338c0 0.781 0.285 1.497 0.757 2.048-1.165 0.309-2.122 1.046-2.713 2.027l-0.011 0.020c-0.602-1.001-1.559-1.738-2.693-2.040l-0.031-0.007c0.471-0.551 0.757-1.267 0.757-2.048v-0.338c-0.002-1.743-1.415-3.155-3.158-3.157h-0c-1.743 0.002-3.155 1.415-3.157 3.157v0.338c0 0.781 0.285 1.497 0.757 2.048-1.165 0.309-2.123 1.045-2.714 2.027l-0.011 0.020c-0.602-1.001-1.559-1.738-2.693-2.040l-0.031-0.007c0.473-0.551 0.757-1.267 0.757-2.048v-0.338c-0.002-1.743-1.415-3.155-3.157-3.157h-0c-1.743 0.002-3.156 1.414-3.158 3.157v0.338c0 0.781 0.286 1.497 0.757 2.048-1.94 0.514-3.347 2.252-3.349 4.32v2.636c0 0.346 0.279 0.625 0.625 0.625h30.75c0.345 0 0.625-0.28 0.625-0.625v0-2.635c-0.003-2.068-1.41-3.806-3.318-4.313l-0.031-0.007zM24.341 22.033c0.001-1.054 0.855-1.908 1.909-1.908 0 0 0 0 0 0v0c1.054 0.001 1.907 0.856 1.907 1.909v0 0.337c-0.001 1.054-0.855 1.908-1.908 1.908h-0c-1.054-0.001-1.908-0.855-1.908-1.909v0-0.337zM14.092 22.033c0.001-1.054 0.855-1.908 1.908-1.908h0c1.054 0.001 1.908 0.855 1.908 1.909v0 0.337c-0.001 1.054-0.855 1.908-1.908 1.908h-0c-1.054-0.001-1.908-0.855-1.908-1.909v0-0.337zM3.841 22.033c0.001-1.054 0.855-1.908 1.909-1.908 0 0 0 0 0 0v0c1.054 0.001 1.908 0.855 1.908 1.909v0 0.337c-0.001 1.054-0.855 1.908-1.909 1.908v0c-1.054-0.001-1.907-0.856-1.907-1.909v0-0.337zM1.249 28.739c0-1.771 1.44-3.211 3.211-3.211h2.58c1.771 0 3.211 1.44 3.211 3.211v2.011h-9.002v-2.011zM11.5 28.739c0-1.771 1.44-3.211 3.211-3.211h2.579c1.771 0 3.211 1.44 3.211 3.211v2.011h-9.002v-2.011zM30.75 30.75h-8.999v-2.011c0-1.771 1.44-3.211 3.211-3.211h2.579c1.77 0 3.211 1.44 3.211 3.211v2.011zM4.833 13.19l-0.005 3.651c0 0.254 0.139 0.485 0.357 0.594 0.078 0.040 0.17 0.063 0.268 0.063 0.152 0 0.29-0.056 0.396-0.149l-0.001 0.001 3.531-3.040h3.906l2.234 2.942c0.123 0.161 0.309 0.254 0.505 0.247 0.204-0.007 0.383-0.113 0.489-0.271l0.001-0.002 1.994-2.916h4.139l3.514 3.040c0.105 0.093 0.244 0.149 0.396 0.149 0.097 0 0.189-0.023 0.271-0.064l-0.003 0.002c0.215-0.112 0.358-0.333 0.358-0.588 0-0.003 0-0.005-0-0.008v0-3.662c1.94-1.312 3.131-3.584 3.131-6.025 0-3.945-3.051-7.155-6.801-7.155h-15.023c-3.75 0-6.801 3.211-6.801 7.155 0 2.448 1.197 4.725 3.147 6.035zM8.489 1.315h15.023c3.061 0 5.551 2.62 5.551 5.84 0 2.098-1.078 4.045-2.814 5.082-0.191 0.119-0.317 0.328-0.317 0.566 0 0.002 0 0.004 0 0.006v-0 2.642l-2.666-2.306c-0.105-0.092-0.244-0.149-0.397-0.149h-4.683c-0.211 0.002-0.396 0.109-0.505 0.272l-0.001 0.002-1.698 2.485-1.908-2.512c-0.112-0.149-0.288-0.246-0.487-0.247h-4.43c-0.152 0.001-0.29 0.057-0.396 0.15l0.001-0.001-2.681 2.307 0.004-2.633c0-0.002 0-0.005 0-0.008 0-0.239-0.126-0.448-0.315-0.565l-0.003-0.002c-1.745-1.035-2.829-2.986-2.829-5.090 0-3.22 2.49-5.84 5.551-5.84z"></path>
<path fill="#72747c" style="fill: var(--color1, #72747c)" d="M23.513 3.75h0.023c0 0 0.001 0 0.001 0 0.345 0 0.625-0.28 0.625-0.625s-0.279-0.624-0.624-0.625h-0.026c-0.345 0-0.625 0.28-0.625 0.625s0.28 0.625 0.625 0.625v0zM25.516 4.502c0.666 0.581 1.047 1.419 1.047 2.299 0 0.832-0.331 1.611-0.932 2.192-0.113 0.113-0.183 0.269-0.183 0.442 0 0.345 0.28 0.625 0.625 0.625 0.165 0 0.316-0.064 0.427-0.169l-0 0c0.809-0.777 1.312-1.869 1.312-3.077 0-0.005 0-0.009-0-0.014v0.001c0-1.241-0.538-2.421-1.474-3.241-0.109-0.096-0.253-0.154-0.411-0.154-0.345 0-0.625 0.28-0.625 0.625 0 0.188 0.083 0.356 0.213 0.47l0.001 0.001zM14.079 8.767c0.475 0.437 0.99 0.853 1.531 1.233l0.048 0.032c0.098 0.068 0.22 0.108 0.351 0.108s0.253-0.040 0.353-0.11l-0.002 0.001c0.032-0.021 0.8-0.546 1.578-1.265 1.148-1.061 1.706-1.969 1.706-2.773 0-1.396-1.062-2.532-2.368-2.532-0.451 0-0.891 0.139-1.266 0.393-0.355-0.244-0.794-0.391-1.267-0.393h-0c-1.306 0-2.368 1.136-2.368 2.532 0 0.804 0.558 1.711 1.706 2.773zM14.741 4.711c0.319 0.004 0.603 0.151 0.792 0.379l0.001 0.002c0.115 0.133 0.285 0.216 0.473 0.216s0.358-0.083 0.472-0.215l0.001-0.001c0.19-0.23 0.474-0.377 0.793-0.381h0.001c0.617 0 1.118 0.576 1.118 1.282 0 0.7-1.317 1.961-2.385 2.754-1.067-0.793-2.384-2.053-2.384-2.754 0-0.707 0.501-1.282 1.118-1.282z"></path>
</symbol>
<symbol id="icon-our-ach3" viewBox="0 0 26 32">
<path fill="#72747c" style="fill: var(--color1, #72747c)" d="M12.903 31.107c7.035-0.031 12.76-5.668 12.9-12.702 0.141-7.033-5.354-12.895-12.382-13.208v-4.679c0-0.286-0.232-0.518-0.518-0.518s-0.518 0.232-0.518 0.518v0 4.679c-7.028 0.313-12.523 6.175-12.382 13.208 0.14 7.034 5.865 12.671 12.9 12.702zM12.903 11.406c0 0 0 0 0 0 0.286 0 0.518-0.232 0.518-0.518 0-0 0-0.001 0-0.001v0-0.374c0.313 0.183 0.519 0.517 0.519 0.899 0 0.573-0.464 1.037-1.037 1.037s-1.037-0.464-1.037-1.037c0-0.382 0.207-0.716 0.514-0.896l0.005-0.003v0.374c0 0.287 0.232 0.518 0.518 0.518zM12.385 6.235v3.171c-0.902 0.238-1.556 1.047-1.556 2.008 0 1.145 0.928 2.074 2.074 2.074s2.074-0.928 2.074-2.074c0-0.961-0.654-1.77-1.541-2.005l-0.014-0.003v-3.171c6.478 0.282 11.545 5.689 11.403 12.172-0.14 6.483-5.437 11.665-11.922 11.665s-11.78-5.182-11.922-11.665c-0.14-6.483 4.924-11.892 11.403-12.172z"></path>
<path fill="#72747c" style="fill: var(--color1, #72747c)" d="M9.481 25.819c0.086 0.065 0.194 0.104 0.311 0.104 0.169 0 0.319-0.081 0.413-0.206l0.001-0.001 6.221-8.295c0.065-0.086 0.104-0.194 0.104-0.311 0-0.286-0.232-0.518-0.518-0.518-0.169 0-0.319 0.081-0.413 0.206l-0.001 0.001-6.221 8.295c-0.065 0.086-0.104 0.194-0.104 0.311 0 0.169 0.081 0.319 0.206 0.413l0.001 0.001zM10.311 20.738c1.145 0 2.074-0.928 2.074-2.074s-0.928-2.074-2.074-2.074v0c-1.145 0-2.074 0.928-2.074 2.074s0.928 2.074 2.074 2.074v0zM10.311 17.628c0.572 0 1.036 0.464 1.036 1.036s-0.464 1.036-1.036 1.036v0c-0.572 0-1.036-0.464-1.036-1.036s0.464-1.036 1.036-1.036v0zM13.421 23.849c-0.001 0.020-0.001 0.042-0.001 0.065 0 1.146 0.929 2.075 2.075 2.075s2.075-0.929 2.075-2.075c0-0.023-0-0.046-0.001-0.069l0 0.003c-0.036-1.117-0.951-2.009-2.074-2.009s-2.037 0.892-2.074 2.006l-0 0.003zM16.532 23.849c0 0.572-0.464 1.036-1.036 1.036s-1.036-0.464-1.036-1.036v0c0-0.572 0.464-1.036 1.036-1.036s1.036 0.464 1.036 1.036v0z"></path>
</symbol>
<symbol id="icon-arow-r" viewBox="0 0 32 32">
<path fill="none" stroke="#575353" style="stroke: var(--color2, #575353)" stroke-linejoin="miter" stroke-linecap="butt" stroke-miterlimit="4" stroke-width="0.4103" d="M31.795 0.205h-31.59v31.59h31.59z"></path>
<path fill="none" stroke="#575353" style="stroke: var(--color2, #575353)" stroke-linejoin="miter" stroke-linecap="butt" stroke-miterlimit="4" stroke-width="0.4103" d="M13.538 10.667l5.333 4.923-5.333 4.923"></path>
</symbol>
<symbol id="icon-arow-l" viewBox="0 0 32 32">
<path fill="none" stroke="#575353" style="stroke: var(--color2, #575353)" stroke-linejoin="miter" stroke-linecap="butt" stroke-miterlimit="4" stroke-width="0.4103" d="M0.205 0.205h31.59v31.59h-31.59z"></path>
<path fill="none" stroke="#575353" style="stroke: var(--color2, #575353)" stroke-linejoin="miter" stroke-linecap="butt" stroke-miterlimit="4" stroke-width="0.4103" d="M18.462 10.667l-5.333 4.923 5.333 4.923"></path>
</symbol>
<symbol id="icon-our-ach1" viewBox="0 0 32 32">
<path fill="#72747c" style="fill: var(--color1, #72747c)" d="M17.914 6.28c0.728-0.661 1.183-1.611 1.184-2.667v-0c0-1.992-1.621-3.613-3.613-3.613s-3.613 1.621-3.613 3.613c0 1.057 0.458 2.006 1.184 2.667-2.158 0.43-3.762 2.306-3.766 4.558v2.065c0 0.285 0.231 0.516 0.516 0.516v0h11.355c0.285 0 0.516-0.231 0.516-0.516v0-2.065c-0.003-2.252-1.607-4.129-3.735-4.555l-0.030-0.005zM12.904 3.613c-0.001-1.422 1.157-2.581 2.58-2.581s2.581 1.158 2.581 2.581c0 1.423-1.157 2.581-2.581 2.581-1.425-0.002-2.579-1.156-2.581-2.58v-0zM20.645 12.387h-10.323v-1.548c0-1.99 1.621-3.613 3.613-3.613h3.097c1.992 0 3.613 1.622 3.613 3.613v1.548zM8.623 23.83c0.728-0.661 1.183-1.611 1.183-2.667v-0c0-1.992-1.621-3.613-3.613-3.613s-3.613 1.621-3.613 3.613c0 1.057 0.458 2.007 1.183 2.667-2.157 0.431-3.76 2.307-3.764 4.559v2.065c0 0.285 0.231 0.516 0.516 0.516v0h11.355c0.285 0 0.516-0.231 0.516-0.516v0-2.065c-0.003-2.252-1.607-4.129-3.734-4.555l-0.030-0.005zM3.613 21.162c0-1.422 1.158-2.581 2.581-2.581s2.581 1.158 2.581 2.581c0 1.425-1.157 2.581-2.581 2.581-1.425-0.002-2.579-1.156-2.581-2.58v-0zM11.355 29.938h-10.323v-1.548c0-1.992 1.621-3.613 3.613-3.613h3.097c1.992 0 3.613 1.621 3.613 3.613v1.548zM27.205 23.83c0.728-0.661 1.183-1.611 1.184-2.667v-0c0-1.992-1.621-3.613-3.613-3.613s-3.613 1.621-3.613 3.613c0 1.057 0.458 2.007 1.183 2.667-2.157 0.43-3.761 2.307-3.765 4.559v2.065c0 0.285 0.231 0.516 0.516 0.516v0h11.355c0 0 0.001 0 0.001 0 0.285 0 0.516-0.231 0.516-0.516 0 0 0 0 0 0v0-2.065c-0.003-2.252-1.607-4.129-3.735-4.555l-0.030-0.005zM22.194 21.162c0-1.422 1.158-2.581 2.581-2.581 1.425 0 2.581 1.158 2.581 2.581 0 1.425-1.156 2.581-2.581 2.581-1.425-0.002-2.579-1.156-2.581-2.58v-0zM29.935 29.938h-10.323v-1.548c0-1.992 1.621-3.613 3.613-3.613h3.097c1.992 0 3.613 1.621 3.613 3.613v1.548zM3.107 16.501l-1.032 0.041c0.014 0.355 0.043 0.715 0.086 1.069l1.025-0.124c-0.036-0.277-0.064-0.618-0.078-0.962l-0.001-0.024zM2.159 14.4c-0.041 0.351-0.070 0.712-0.084 1.069l1.031 0.040c0.012-0.33 0.039-0.663 0.077-0.988l-1.025-0.122zM7.35 5.326c-0.31 0.237-0.58 0.461-0.84 0.695l0.012-0.011 0.691 0.768c0.246-0.221 0.503-0.434 0.764-0.632l-0.627-0.822zM3.338 10.287c-0.152 0.322-0.292 0.654-0.418 0.99l0.966 0.362c0.116-0.309 0.246-0.615 0.385-0.911l-0.933-0.441zM2.583 12.296c-0.098 0.341-0.184 0.693-0.254 1.043l1.012 0.204c0.065-0.323 0.145-0.647 0.234-0.962l-0.992-0.285zM5.754 6.76c-0.248 0.26-0.485 0.532-0.708 0.806l0.803 0.65c0.205-0.255 0.425-0.506 0.653-0.745l-0.748-0.711zM9.153 4.166c-0.312 0.166-0.623 0.35-0.926 0.544l0.559 0.868c0.279-0.18 0.566-0.349 0.853-0.502l-0.485-0.91zM4.405 8.426c-0.201 0.295-0.393 0.601-0.571 0.909l0.896 0.513c0.163-0.285 0.341-0.568 0.526-0.838l-0.852-0.584zM13.039 28.148l-0.203 1.012c0.347 0.071 0.704 0.127 1.061 0.169l0.12-1.025c-0.396-0.047-0.729-0.102-1.057-0.17l0.079 0.014zM17.963 28.141c-0.321 0.065-0.65 0.118-0.98 0.159l0.125 1.025c0.356-0.043 0.712-0.101 1.059-0.171l-0.204-1.013zM15.998 28.379c-0.33 0.012-0.664 0.014-0.991 0.002l-0.041 1.031c0.153 0.007 0.333 0.011 0.513 0.011 0.197 0 0.393-0.005 0.588-0.014l-0.028 0.001-0.041-1.031zM24.45 6.015l-0.69 0.768c0.246 0.221 0.484 0.453 0.709 0.691l0.749-0.71c-0.245-0.258-0.503-0.51-0.769-0.748zM25.926 7.57l-0.803 0.65c0.206 0.254 0.406 0.521 0.593 0.795l0.851-0.584c-0.23-0.335-0.44-0.615-0.66-0.887l0.020 0.026zM28.895 15.47l-1.032 0.041c0.007 0.148 0.010 0.321 0.010 0.495s-0.004 0.348-0.011 0.52l0.001-0.025 1.032 0.040c0.007-0.16 0.011-0.348 0.011-0.536s-0.004-0.376-0.012-0.563l0.001 0.027zM27.138 9.339l-0.896 0.513c0.163 0.286 0.317 0.581 0.457 0.878l0.934-0.441c-0.188-0.4-0.353-0.711-0.53-1.015l0.035 0.065zM28.051 11.279l-0.966 0.363c0.116 0.308 0.22 0.623 0.311 0.939l0.993-0.284c-0.125-0.439-0.24-0.777-0.368-1.11l0.031 0.091zM28.641 13.341l-1.012 0.203c0.065 0.323 0.118 0.653 0.155 0.979l1.026-0.122c-0.041-0.352-0.099-0.709-0.169-1.060zM22.746 4.712l-0.558 0.868c0.276 0.178 0.547 0.37 0.81 0.57l0.627-0.821c-0.284-0.217-0.579-0.424-0.877-0.617zM20.855 3.699l-0.413 0.946c0.3 0.132 0.6 0.278 0.891 0.434l0.488-0.909c-0.242-0.136-0.56-0.293-0.884-0.437l-0.082-0.033z"></path>
</symbol>
<symbol id="icon-card" viewBox="0 0 35 32">
<path fill="#72747c" style="fill: var(--color1, #72747c)" d="M33.696 4.512c-0.141-0.141-0.281-0.283-0.564-0.283h-26.787l-0.706-3.665c0-0.283-0.421-0.564-0.704-0.564h-4.229c-0.424 0-0.706 0.281-0.706 0.706 0 0.421 0.281 0.704 0.706 0.704h3.665l3.385 17.201c0.421 2.257 2.536 3.948 4.792 3.948h16.214c0.423 0 0.706-0.283 0.706-0.706 0-0.421-0.283-0.704-0.706-0.704h-16.072c-1.128 0-2.257-0.564-2.819-1.551l20.584-2.819c0.303-0.021 0.543-0.261 0.564-0.562l0-0.002 2.818-11.279s0-0.283-0.141-0.423zM29.748 15.51l-20.584 2.678-2.538-12.689h25.519l-2.397 10.009zM11.983 23.968c-1.972 0-3.523 1.549-3.523 3.525 0 1.974 1.549 3.523 3.523 3.523s3.525-1.549 3.525-3.523c0-1.974-1.549-3.525-3.525-3.525zM11.983 29.607c-1.128 0-2.114-0.987-2.114-2.114 0-1.128 0.987-2.115 2.114-2.115 1.128 0 2.115 0.987 2.115 2.115s-0.987 2.114-2.115 2.114zM26.083 23.968c-1.974 0-3.525 1.549-3.525 3.525 0 1.974 1.549 3.523 3.525 3.523 1.974 0 3.525-1.549 3.525-3.523s-1.551-3.525-3.525-3.525zM26.083 29.607c-1.128 0-2.115-0.987-2.115-2.114 0-1.128 0.987-2.115 2.115-2.115s2.115 0.987 2.115 2.115-0.987 2.114-2.115 2.114z"></path>
</symbol>
</defs>
</svg>
